<svg viewBox="0 0 800 800" fill="none" xmlns="http://www.w3.org/2000/svg">
<path fill-rule="evenodd" clip-rule="evenodd" d="M399.982 799.965C620.895 799.965 799.965 620.895 799.965 399.982C799.965 179.07 620.895 0 399.982 0C179.07 0 0 179.07 0 399.982C0 620.895 179.07 799.965 399.982 799.965ZM399.982 733.298C582.562 733.298 733.298 582.562 733.298 399.982C733.298 217.402 582.562 66.6666 399.982 66.6666C217.402 66.6666 66.6666 217.402 66.6666 399.982C66.6666 582.562 217.402 733.298 399.982 733.298Z" fill="#303030"/>
<path fill-rule="evenodd" clip-rule="evenodd" d="M246.662 266.663H553.328V319.996H246.662V266.663ZM246.662 479.996H553.328V533.329H246.662V479.996ZM366.662 266.663H433.328V533.329H366.662V266.663Z" fill="#303030"/>
</svg>
